<!--?xml version="1.0" encoding="UTF-8"?-->
<svg xmlns="http://www.w3.org/2000/svg" viewBox="0 0 64 64" width="64" height="64" fill="none" stroke="#0E2414" stroke-width="2.5" stroke-linecap="round" stroke-linejoin="round">

  <!-- Outer circle -->
  <circle cx="32" cy="32" r="28"></circle>

  <!-- Gear shape -->
  <path d="
    M32 14
    L36 16
    L41 15
    L45 19
    L44 24
    L48 28
    L48 36
    L44 40
    L45 45
    L41 49
    L36 48
    L32 50
    L28 48
    L23 49
    L19 45
    L20 40
    L16 36
    L16 28
    L20 24
    L19 19
    L23 15
    L28 16
    Z
  "></path>

  <!-- Lightning bolt -->
  <path d="
    M30 20
    L38 20
    L33 30
    L40 30
    L26 48
    L30 34
    L24 34
    Z
  " fill="#0E2414"></path>

</svg>
