<!--?xml version="1.0" encoding="UTF-8"?-->
<svg xmlns="http://www.w3.org/2000/svg" viewBox="0 0 64 64" width="64" height="64" fill="none" stroke="#0E2414" stroke-width="2.5" stroke-linecap="round" stroke-linejoin="round">

  <!-- Circular arrows -->
  <path d="M32 6a26 26 0 0 1 20 9"></path>
  <polyline points="48,12 52,14 50,18"></polyline>

  <path d="M58 32a26 26 0 0 1-9 20"></path>
  <polyline points="52,48 50,52 46,50"></polyline>

  <path d="M32 58a26 26 0 0 1-20-9"></path>
  <polyline points="16,52 12,50 14,46"></polyline>

  <path d="M6 32a26 26 0 0 1 9-20"></path>
  <polyline points="12,16 14,12 18,14"></polyline>

  <!-- Globe -->
  <circle cx="28" cy="32" r="12"></circle>
  <path d="M28 20v24"></path>
  <path d="M16 32h24"></path>
  <path d="M20 24c6 4 14 4 20 0"></path>
  <path d="M20 40c6-4 14-4 20 0"></path>

  <!-- Document -->
  <path d="M38 30h14v22H38z" fill="#0E2414"></path>
  <line x1="41" y1="36" x2="49" y2="36" stroke="#ffffff"></line>
  <line x1="41" y1="40" x2="49" y2="40" stroke="#ffffff"></line>
  <line x1="41" y1="44" x2="47" y2="44" stroke="#ffffff"></line>

</svg>
